Coordinates
version=1
nRows=26
nColumns=24
inDegrees=yes

Units are S.I. units (second, meters, Newtons, ...)
Angles are in degrees.

endheader
time	pelvis_tilt	pelvis_list	pelvis_rotation	pelvis_tx	pelvis_ty	pelvis_tz	hip_flexion_r	hip_adduction_r	hip_rotation_r	knee_angle_r	ankle_angle_r	subtalar_angle_r	mtp_angle_r	hip_flexion_l	hip_adduction_l	hip_rotation_l	knee_angle_l	ankle_angle_l	subtalar_angle_l	mtp_angle_l	lumbar_extension	lumbar_bending	lumbar_rotation
      5.85000000	     -3.12143215	     -3.14775350	     -8.18756698	      1.23987795	      0.67238458	     -0.18945807	     -4.28061366	      9.17413399	      5.03598484	     -7.17014721	     18.98049140	     -3.34831993	      0.00000000	     30.67190335	     -7.45541327	     -3.92518226	    -34.61943345	     -0.58086050	    -29.90524971	      0.00000000	    -12.37076237	     -4.57152310	     12.63527064
      5.86000000	     -2.99872967	     -3.68416352	     -8.96586631	      1.24948247	      0.67130984	     -0.18872693	     -5.70073778	      9.46847922	      5.27145265	     -6.68049812	     19.31829831	     -2.57478338	      0.00000000	     30.35478708	     -8.34151452	     -4.24552270	    -30.65945201	     -0.71749306	    -27.31646167	      0.00000000	    -12.48736733	     -4.03160152	     13.16770011
      5.87000000	     -2.94666530	     -4.24892554	     -9.68127201	      1.25926689	      0.67004460	     -0.18813181	     -7.05716944	      9.76381765	      5.51921035	     -6.23050479	     19.59125742	     -1.86648218	      0.00000000	     29.99803390	     -9.20563581	     -4.55250340	    -26.58722353	     -0.99652820	    -24.46310552	      0.00000000	    -12.51724860	     -3.40598515	     13.66569048
      5.88000000	     -2.93843745	     -4.79203777	    -10.36297621	      1.26925204	      0.66864012	     -0.18764696	     -8.38823961	     10.00435004	      5.88189735	     -5.79367121	     19.82436341	     -1.22030199	      0.00000000	     29.56197283	     -9.99931993	     -4.84745627	    -22.40419384	     -1.50640491	    -21.65812918	      0.00000000	    -12.47533213	     -2.76037903	     14.13168155
      5.89000000	     -3.01686511	     -5.33424658	    -11.00819322	      1.27938793	      0.66707273	     -0.18728254	     -9.60353256	     10.22715697	      6.23266672	     -5.44266559	     20.00734760	     -0.63573049	      0.00000000	     29.15255460	    -10.77079245	     -5.20785020	    -18.24339089	     -1.99797571	    -18.68627010	      0.00000000	    -12.33622315	     -2.05644010	     14.57094070
      5.90000000	     -3.13301503	     -5.81055161	    -11.64988407	      1.28969488	      0.66541854	     -0.18702425	    -10.76042217	     10.35139758	      6.66573866	     -5.14695185	     20.17803092	     -0.06928992	      0.00000000	     28.70936867	    -11.44800432	     -5.63982438	    -14.13861460	     -2.47040579	    -15.90360252	      0.00000000	    -12.13617866	     -1.38198879	     15.00241449
      5.91000000	     -3.32360530	     -6.23756025	    -12.29451556	      1.30012373	      0.66366271	     -0.18687224	    -11.78636753	     10.40794672	      7.08950153	     -4.95645799	     20.32295481	      0.48400605	      0.00000000	     28.33982137	    -12.06887488	     -6.23262135	    -10.27419311	     -2.64488729	    -13.11526689	      0.00000000	    -11.84794304	     -0.70962932	     15.43407233
      5.92000000	     -3.56426930	     -6.58776174	    -12.93941045	      1.31065445	      0.66184611	     -0.18684522	    -12.69263844	     10.36695969	      7.49413535	     -4.87452939	     20.44867429	      1.04639432	      0.00000000	     28.07310781	    -12.59263093	     -6.99323374	     -6.80163877	     -2.49428795	    -10.46424322	      0.00000000	    -11.49751287	     -0.07395072	     15.85504035
      5.93000000	     -3.83280775	     -6.81832633	    -13.62115566	      1.32128667	      0.66001179	     -0.18692949	    -13.48991912	     10.17418332	      7.93261075	     -4.90047837	     20.59618615	      1.60516164	      0.00000000	     27.87302962	    -12.96972381	     -7.77864627	     -3.76107380	     -2.13692826	     -8.39542998	      0.00000000	    -11.09853759	      0.45776522	     16.34503135
      5.94000000	     -4.11341477	     -6.98738313	    -14.22727543	      1.33197337	      0.65817134	     -0.18719797	    -14.18942837	      9.91763295	      8.26998808	     -5.03004644	     20.68544834	      2.15642677	      0.00000000	     27.85104821	    -13.22902500	     -8.67080248	     -1.36725870	     -1.67407285	     -6.63245416	      0.00000000	    -10.70498204	      0.97137341	     16.69886494
      5.95000000	     -4.36450684	     -7.06681917	    -14.75992696	      1.34274551	      0.65636668	     -0.18764170	    -14.83559469	      9.55948134	      8.51474447	     -5.24257236	     20.70200805	      2.68368510	      0.00000000	     27.96303862	    -13.33700337	     -9.54636751	      0.32267154	     -1.24127472	     -5.43381835	      0.00000000	    -10.35468294	      1.40451128	     16.93834589
      5.96000000	     -4.59642384	     -7.11949255	    -15.24599081	      1.35361257	      0.65457982	     -0.18820998	    -15.45271566	      9.16635372	      8.78982421	     -5.51089518	     20.50081845	      3.04913195	      0.00000000	     28.16683552	    -13.37731462	    -10.04911112	      1.32404458	     -1.03559813	     -5.40068529	      0.00000000	    -10.04900817	      1.81382097	     17.15629481
      5.97000000	     -4.74715971	     -7.04902933	    -15.70481927	      1.36462226	      0.65286769	     -0.18887215	    -16.05641245	      8.62153021	      9.05072333	     -5.88897373	     20.36114852	      3.37447336	      0.00000000	     28.43940503	    -13.28445563	    -10.64146945	      1.53371434	     -0.74486146	     -5.65060508	      0.00000000	     -9.84061185	      2.05030188	     17.34753158
      5.98000000	     -4.83652387	     -6.92857972	    -16.10729815	      1.37583030	      0.65119538	     -0.18961640	    -16.65771521	      8.01503764	      9.28374046	     -6.36314878	     20.10288371	      3.68709043	      0.00000000	     28.77848264	    -13.13021344	    -11.17438357	      0.98185392	     -0.43251352	     -6.19658502	      0.00000000	     -9.69635060	      2.20392761	     17.47135687
      5.99000000	     -4.89154817	     -6.75945114	    -16.50302279	      1.38729827	      0.64953504	     -0.19040145	    -17.24790987	      7.33998653	      9.49568063	     -6.90615504	     19.75070372	      3.97017560	      0.00000000	     29.13716659	    -12.94342026	    -11.63744733	     -0.19094425	     -0.18542262	     -6.99923919	      0.00000000	     -9.57258350	      2.28563155	     17.59736670
      6.00000000	     -4.93816507	     -6.54753893	    -16.88842141	      1.39909133	      0.64784143	     -0.19123479	    -17.82008149	      6.60740718	      9.68122720	     -7.49458594	     19.34240274	      4.27681315	      0.00000000	     29.39907923	    -12.69244967	    -11.51883497	     -1.64073441	     -0.61271919	     -8.93279279	      0.00000000	     -9.41193472	      2.31076560	     17.73409017
      6.01000000	     -4.99349553	     -6.20873058	    -17.29086760	      1.41117327	      0.64618365	     -0.19209110	    -18.29402688	      5.73921758	      9.82081871	     -8.18179465	     18.65994318	      4.49388952	      0.00000000	     29.72392480	    -12.36726809	    -11.82643298	     -3.51162465	     -0.85927839	     -9.96418401	      0.00000000	     -9.17580684	      2.19374280	     17.86729852
      6.02000000	     -5.08863161	     -5.81893788	    -17.60631051	      1.42352739	      0.64450487	     -0.19308897	    -18.71811965	      4.84569588	      9.92470559	     -8.84860083	     17.94535225	      4.65662438	      0.00000000	     29.92420550	    -11.87112518	    -10.98681048	     -5.18826939	     -2.60139407	    -13.00154674	      0.00000000	     -8.84719218	      2.04445982	     17.88787300
      6.03000000	     -5.17519659	     -5.21487180	    -17.85523971	      1.43602779	      0.64299569	     -0.19418981	    -18.99424409	      3.75692612	      9.81088329	     -9.63843507	     17.02988896	      4.91914993	      0.00000000	     30.20679353	    -11.15416943	    -10.37624608	     -6.98757062	     -4.56730695	    -15.46077813	      0.00000000	     -8.46094681	      1.64085190	     17.79804770
      6.04000000	     -5.25404941	     -4.41181246	    -17.92664047	      1.44855764	      0.64169673	     -0.19550407	    -19.12895555	      2.53468684	      9.49756226	    -10.52740757	     15.92598518	      5.15792611	      0.00000000	     30.62787728	    -10.15554638	     -9.55536169	     -8.87445280	     -6.84896945	    -17.96487081	      0.00000000	     -8.05853917	      1.00798671	     17.53131130
      6.05000000	     -5.26356414	     -3.42757225	    -17.75815764	      1.46101418	      0.64071220	     -0.19705139	    -19.17064764	      1.21290740	      8.96292899	    -11.54975585	     14.57417808	      5.32572629	      0.00000000	     31.21402762	     -8.86120692	     -8.60909986	    -11.02329371	     -8.81577506	    -20.16771408	      0.00000000	     -7.75366057	      0.12380172	     17.07985807
      6.06000000	     -5.17699889	     -2.32687021	    -17.33641977	      1.47332861	      0.64007959	     -0.19879883	    -19.14678843	     -0.12793335	      8.26443088	    -12.76132852	     12.91499487	      5.31118709	      0.00000000	     31.96314067	     -7.33007384	     -7.72517608	    -13.59079942	     -9.78124744	    -21.66275318	      0.00000000	     -7.62753741	     -0.96044570	     16.49301919
      6.07000000	     -5.02608403	     -1.20687370	    -16.75321167	      1.48546281	      0.63979763	     -0.20063193	    -18.98965915	     -1.39842315	      7.47449051	    -14.28241885	     10.83766435	      5.13021884	      0.00000000	     32.79347565	     -5.71091423	     -7.11828346	    -16.51148029	     -9.37279890	    -22.17463387	      0.00000000	     -7.68137905	     -2.13119638	     15.95266361
      6.08000000	     -4.82199645	     -0.07479020	    -16.02990509	      1.49746591	      0.63981001	     -0.20252272	    -18.67542421	     -2.58340099	      6.64263105	    -16.15137011	      8.45049613	      4.55260758	      0.00000000	     33.49116612	     -3.95259292	     -6.52686236	    -19.37255547	     -8.38502910	    -22.66948055	      0.00000000	     -7.87550532	     -3.35872874	     15.40438575
      6.09000000	     -4.57509595	      0.92184842	    -15.38962741	      1.50927808	      0.64023491	     -0.20423198	    -18.22803598	     -3.55438515	      6.33762335	    -18.29247971	      5.17754478	      2.99230320	      0.00000000	     33.87863537	     -2.34923014	     -6.25868136	    -21.93944717	     -6.53603666	    -22.51938262	      0.00000000	     -8.20940216	     -4.48909034	     15.13918154
      6.10000000	     -4.44030065	      1.88025061	    -14.88521811	      1.52087278	      0.64092769	     -0.20583244	    -17.28010416	     -4.43901982	      6.12216044	    -20.99676115	      1.55773146	      1.26342816	      0.00000000	     33.99712556	     -0.82398909	     -6.10986012	    -23.87471634	     -4.63676352	    -22.46949703	      0.00000000	     -8.43818191	     -5.54063826	     14.99101926
